# Blender 3.5.0
# www.blender.org
mtllib door.mtl
o obj_0
v -32.792999 -34.999996 41.000004
v -32.792999 -35.000000 0.000003
v -8.751000 -10.958000 0.000001
v -8.751000 -10.957997 41.000000
v -9.458000 -10.250998 41.000000
v -9.458000 -10.251000 0.000001
v -33.500000 -34.292999 0.000003
v -33.500000 -34.292995 41.000004
vn 0.7071 -0.7071 -0.0000
vn -0.7071 0.7071 -0.0000
vn -0.0000 -0.0000 1.0000
vn -0.0000 -0.0000 -1.0000
vn 0.7071 0.7071 -0.0000
vn -0.7071 -0.7071 -0.0000
s 0
usemtl color_15277357
f 1//1 2//1 3//1
f 1//1 3//1 4//1
f 5//2 6//2 7//2
f 5//2 7//2 8//2
f 4//3 5//3 8//3
f 4//3 8//3 1//3
f 2//4 7//4 6//4
f 2//4 6//4 3//4
f 4//5 3//5 6//5
f 4//5 6//5 5//5
f 8//6 7//6 2//6
f 8//6 2//6 1//6
