# Blender 3.5.0
# www.blender.org
o obj_0
v 24.000000 -10.999997 41.000000
v 24.000000 -11.000000 0.000001
v 24.000000 9.000000 -0.000001
v 24.000000 9.000003 41.000000
v -10.000000 9.000003 41.000000
v -10.000000 9.000000 -0.000001
v -10.000000 -11.000000 0.000001
v -10.000000 -10.999997 41.000000
v -9.000000 -11.500000 6.000001
v -9.250000 -11.433000 6.000001
v -9.433000 -11.250000 6.000001
v -9.500000 -11.000000 6.000001
v -8.500000 -11.000000 6.000001
v -8.567000 -11.250000 6.000001
v -8.750000 -11.433000 6.000001
v -9.250000 -11.432997 35.000000
v -9.250000 -11.432997 32.000000
v -9.000000 -11.499998 19.000000
v -9.250000 -11.432998 19.000000
v -9.433000 -11.249998 19.000000
v -9.500000 -10.999998 19.000000
v -8.500000 -10.999998 19.000000
v -8.567000 -11.249998 19.000000
v -8.750000 -11.432998 19.000000
v -8.567000 -11.249998 22.000000
v -8.500000 -10.999998 22.000000
v -9.500000 -10.999998 22.000000
v -9.433000 -11.249998 22.000000
v -9.250000 -11.432998 22.000000
v -9.000000 -11.499998 22.000000
v -8.750000 -11.432998 22.000000
v -8.002000 7.003002 27.997999
v -8.002000 7.003003 39.002998
v -9.500000 -10.999997 32.000000
v -8.002000 -10.999997 39.002998
v -8.002000 -10.999998 27.997999
v -8.002000 7.003000 1.998000
v -8.002000 7.003001 13.002999
v -8.002000 -10.999999 13.003001
v -8.002000 -11.000000 1.998001
v -8.002000 7.003001 14.997999
v -8.002000 7.003002 26.003000
v -8.002000 -10.999998 26.003000
v -8.002000 -10.999999 14.998001
v -8.500000 -10.999997 32.000000
v 22.003000 -10.999997 39.002998
v 22.003000 7.003003 39.002998
v -8.750000 -11.432997 32.000000
v 22.003000 7.003002 27.997999
v 22.003000 -10.999998 27.997999
v 22.003000 -10.999999 13.003001
v 22.003000 7.003001 13.002999
v 22.003000 7.003000 1.998000
v 22.003000 -11.000000 1.998001
v -8.500000 -10.999997 35.000000
v -9.500000 -10.999997 35.000000
v 22.003000 -10.999998 26.003000
v 22.003000 7.003002 26.003000
v 22.003000 7.003001 14.997999
v 22.003000 -10.999999 14.998001
v -8.750000 -11.432997 35.000000
v -8.567000 -11.249999 9.000001
v -8.500000 -10.999999 9.000001
v -9.500000 -10.999999 9.000001
v -9.433000 -11.249999 9.000001
v -9.250000 -11.432999 9.000001
v -9.000000 -11.499999 9.000001
v -8.750000 -11.432999 9.000001
vn 1.0000 -0.0000 -0.0000
vn -1.0000 -0.0000 -0.0000
vn -0.0000 -0.0000 1.0000
vn -0.0000 -0.0000 -1.0000
vn -0.0000 -1.0000 -0.0000
vn -0.0000 1.0000 -0.0000
vn 0.2589 -0.9659 -0.0000
vn 0.7071 -0.7071 -0.0000
vn 0.9659 -0.2589 -0.0000
vn -0.9659 -0.2589 -0.0000
vn -0.8660 -0.5000 -0.0000
vn -0.7071 -0.7071 -0.0000
vn 0.8660 -0.5000 -0.0000
vn -0.2589 -0.9659 -0.0000
s 0
f 1//1 2//1 3//1
f 1//1 3//1 4//1
f 5//2 6//2 7//2
f 5//2 7//2 8//2
f 1//3 4//3 8//3
f 5//3 8//3 4//3
f 3//4 7//4 6//4
f 2//4 7//4 3//4
f 32//1 33//1 35//1
f 32//1 35//1 36//1
f 37//1 38//1 39//1
f 37//1 39//1 40//1
f 41//1 42//1 43//1
f 41//1 43//1 44//1
f 46//2 47//2 49//2
f 46//2 49//2 50//2
f 8//5 35//5 1//5
f 53//2 54//2 52//2
f 51//2 52//2 54//2
f 57//2 58//2 59//2
f 57//2 59//2 60//2
f 47//5 33//5 32//5
f 47//5 32//5 49//5
f 50//3 49//3 32//3
f 50//3 32//3 36//3
f 52//5 38//5 37//5
f 52//5 37//5 53//5
f 3//6 6//6 5//6
f 54//3 53//3 37//3
f 54//3 37//3 40//3
f 5//6 4//6 3//6
f 38//4 52//4 51//4
f 38//4 51//4 39//4
f 58//5 42//5 41//5
f 58//5 41//5 59//5
f 12//5 64//5 7//5
f 64//5 21//5 7//5
f 8//5 7//5 21//5
f 8//5 21//5 27//5
f 8//5 27//5 34//5
f 8//5 34//5 56//5
f 60//3 59//3 41//3
f 60//3 41//3 44//3
f 42//4 58//4 57//4
f 42//4 57//4 43//4
f 39//5 63//5 40//5
f 13//5 12//5 40//5
f 7//5 40//5 12//5
f 33//4 47//4 46//4
f 33//4 46//4 35//4
f 44//5 43//5 26//5
f 26//5 22//5 44//5
f 22//5 21//5 44//5
f 39//5 44//5 21//5
f 13//5 40//5 63//5
f 43//5 36//5 34//5
f 45//5 34//5 36//5
f 55//5 45//5 36//5
f 36//5 35//5 55//5
f 8//5 56//5 35//5
f 46//5 1//5 35//5
f 7//5 2//5 40//5
f 64//5 39//5 21//5
f 63//5 39//5 64//5
f 60//5 44//5 39//5
f 60//5 39//5 51//5
f 27//5 43//5 34//5
f 26//5 43//5 27//5
f 50//5 36//5 43//5
f 50//5 43//5 57//5
f 55//5 35//5 56//5
f 54//5 40//5 2//5
f 1//5 46//5 50//5
f 1//5 50//5 57//5
f 2//5 1//5 60//5
f 51//5 2//5 60//5
f 54//5 2//5 51//5
f 57//5 60//5 1//5
f 13//4 14//4 11//4
f 12//4 13//4 11//4
f 10//4 11//4 14//4
f 14//4 15//4 10//4
f 9//4 10//4 15//4
f 22//4 23//4 20//4
f 21//4 22//4 20//4
f 19//4 20//4 23//4
f 23//4 24//4 19//4
f 18//4 19//4 24//4
f 25//3 26//3 27//3
f 25//3 27//3 28//3
f 25//3 28//3 29//3
f 30//3 31//3 29//3
f 25//3 29//3 31//3
f 30//7 18//7 24//7
f 30//7 24//7 31//7
f 24//8 23//8 25//8
f 24//8 25//8 31//8
f 23//9 22//9 26//9
f 23//9 26//9 25//9
f 27//10 21//10 20//10
f 27//10 20//10 28//10
f 16//5 17//5 48//5 61//5
f 56//11 34//11 17//11 16//11
f 20//12 19//12 29//12
f 20//12 29//12 28//12
f 56//3 16//3 61//3 55//3
f 55//13 61//13 48//13 45//13
f 45//4 48//4 17//4 34//4
f 18//14 30//14 29//14
f 18//14 29//14 19//14
f 62//3 63//3 64//3
f 62//3 64//3 65//3
f 62//3 65//3 66//3
f 67//3 68//3 66//3
f 62//3 66//3 68//3
f 67//7 9//7 15//7
f 67//7 15//7 68//7
f 15//8 14//8 62//8
f 15//8 62//8 68//8
f 14//9 13//9 63//9
f 14//9 63//9 62//9
f 64//10 12//10 11//10
f 64//10 11//10 65//10
f 11//12 10//12 66//12
f 11//12 66//12 65//12
f 9//14 67//14 66//14
f 9//14 66//14 10//14
